/* XPM */
static char * Icon_tgz[] = {
"16 16 8 1",
" 	c None",
".	c #000000",
"+	c #FFFFFF",
"@	c #FF0000",
"#	c #FFFFC0",
"$	c #C0C000",
"%	c #FFFF00",
"&	c #808080",
"                ",
"       .. ..    ",
"      .++.++..  ",
"  @  .++.+++++. ",
" @@ .++.+...+.  ",
"....++.+.+++..  ",
"  .+#.#.++++++. ",
" .##.#.+++$++.  ",
" .%#..+++$++.   ",
"  .&.##+$++.    ",
"   .###$+#.@@@  ",
"   ..####. @@   ",
"     ..#.  @    ",
"       .        ",
"                ",
"                "};
