/* XPM */
static char * Icon_wav[] = {
"16 16 4 1",
" 	c None",
".	c #000000",
"+	c #FFFFFF",
"@	c #BEFFFF",
"          .     ",
"          .     ",
" .............. ",
"  ++++++++.+++  ",
"  ++++++++.+++  ",
" .............. ",
"  ++++++++.+++  ",
"  ++++++++.+++  ",
" .............. ",
"  ++++...+.+++  ",
"  +++..@...+++  ",
" .....@........ ",
"  +++......+++  ",
"  ++++....++++  ",
" .............. ",
"                "};
