/* XPM */
static char * Icon_rpm[] = {
"16 16 5 1",
" 	c None",
".	c #FFFFC0",
"+	c #000000",
"@	c #808000",
"#	c #C0C000",
".....++...+.....",
"...++..+++.++...",
".++..++@#++..++.",
"+..++@@@###++..+",
"+++@@@@@#####+++",
".+.++@@@###+++..",
".+...++@#++##+..",
".+.....++####+..",
".+......#####+..",
".+......#####+..",
".+......#####+..",
".+......#####+..",
".+#.....####++..",
"..++#...##++....",
"....++#.++......",
"......++........"};
