/* XPM */
static char * Icon_html[] = {
"14 14 7 1",
" 	c None",
".	c #000080",
"+	c #808080",
"@	c #595959",
"#	c #0000BE",
"$	c #FFFFFF",
"%	c #000000",
"..............",
"...+..@##+....",
".@.$+..+..+$..",
"...$$+...++$..",
"+.+$$$++...$..",
".+.$.$$+.+.$..",
"..+$.+$$+.+$+.",
".++$.++$$++$.+",
"+.+$.+#+$$+$.+",
"+.+$+.+.+$$$++",
"+++$++.+++$$++",
"++%++%%%%%%%%%",
"%%%%%%%%%%%%%%",
"%%%%%%%%%%%%%%"};
