/* XPM */
static char * Icon_ps[] = {
"16 16 75 1",
" 	c None",
".	c #E6E6EF",
"+	c #9F9FEB",
"@	c #CBCBED",
"#	c #EFEFEF",
"$	c #B0B1EB",
"%	c #CACBED",
"&	c #9F9FEF",
"*	c #E5E6ED",
"=	c #4F4F4F",
"-	c #4645CC",
";	c #5855CE",
">	c #B0B1E0",
",	c #9696DD",
"'	c #9696DE",
")	c #6061D0",
"!	c #9596DD",
"~	c #9F9FDE",
"{	c #4F4FB3",
"]	c #9F9FCD",
"^	c #6967BC",
"/	c #D4D4E6",
"(	c #2C2CA6",
"_	c #8D8CC8",
":	c #6061BE",
"<	c #CACBE6",
"[	c #4F4F90",
"}	c #E6E6E7",
"|	c #4F4F93",
"1	c #B0AFC8",
"2	c #8484B8",
"3	c #2C2C53",
"4	c #C1C3C6",
"5	c #9F9FAF",
"6	c #9F9FAD",
"7	c #61617C",
"8	c #CBCAD4",
"9	c #848493",
"0	c #C8C1B9",
"a	c #C8BFB9",
"b	c #DDD9D4",
"c	c #B8A39B",
"d	c #AA8C99",
"e	c #AF939F",
"f	c #3C3538",
"g	c #000000",
"h	c #E6DBD4",
"i	c #A5605D",
"j	c #D4B6BF",
"k	c #E6E6E6",
"l	c #CBCCCB",
"m	c #D2B89F",
"n	c #A65723",
"o	c #E6DDE1",
"p	c #D4D5D4",
"q	c #464746",
"r	c #EDEDED",
"s	c #EFE1D4",
"t	c #C16362",
"u	c #E4D6D2",
"v	c #C2C4C2",
"w	c #EDAFA4",
"x	c #E79FBC",
"y	c #B0B3B0",
"z	c #EFD1B9",
"A	c #EFC39F",
"B	c #EB7FAA",
"C	c #EDE9EB",
"D	c #DE88AB",
"E	c #DDDDDD",
"F	c #7B3A56",
"G	c #533340",
"H	c #1A1A1A",
"I	c #4A001E",
"J	c #090909",
"                ",
" .++@#$$#%&*##= ",
" #-#;>,'#)!~##= ",
" #{]^/(_##:<##= ",
" #[##}#|1#2###= ",
" }34#5678#9###= ",
" ##########0a#= ",
" #########bcdefg",
" ########hijkl= ",
" #######mnoklpqg",
" ####r#stupvk#= ",
" #####swxky###= ",
" ####zABklk###= ",
" #####CDEp####= ",
" =====FGq=====H ",
"      I J       "};
